<svg width="30" height="32" viewBox="0 0 30 32" fill="none" xmlns="http://www.w3.org/2000/svg">
<path d="M0 0H30V32H0V0Z" stroke="#E5E7EB"/>
<path d="M0 5H30V29H0V5Z" stroke="#E5E7EB"/>
<path d="M1.5 6.5C2.32969 6.5 3 7.17031 3 8V20H13.5V12.5C13.5 11.6703 14.1703 11 15 11H25.5C27.9844 11 30 13.0156 30 15.5V26C30 26.8297 29.3297 27.5 28.5 27.5C27.6703 27.5 27 26.8297 27 26V24.5H16.5H15H3V26C3 26.8297 2.32969 27.5 1.5 27.5C0.670312 27.5 0 26.8297 0 26V8C0 7.17031 0.670312 6.5 1.5 6.5ZM8.25 11C9.24456 11 10.1984 11.3951 10.9017 12.0983C11.6049 12.8016 12 13.7554 12 14.75C12 15.7446 11.6049 16.6984 10.9017 17.4017C10.1984 18.1049 9.24456 18.5 8.25 18.5C7.25544 18.5 6.30161 18.1049 5.59835 17.4017C4.89509 16.6984 4.5 15.7446 4.5 14.75C4.5 13.7554 4.89509 12.8016 5.59835 12.0983C6.30161 11.3951 7.25544 11 8.25 11Z" fill="#2C7548"/>
</svg>
