<svg width="24" height="32" viewBox="0 0 24 32" fill="none" xmlns="http://www.w3.org/2000/svg">
<path d="M0 0H24V32H0V0Z" stroke="#E5E7EB"/>
<path d="M0 5H24V29H0V5Z" stroke="#E5E7EB"/>
<path d="M6.3375 10.5031L5.11406 14H18.8859L17.6625 10.5031C17.4516 9.90313 16.8844 9.5 16.2469 9.5H7.75312C7.11562 9.5 6.54844 9.90313 6.3375 10.5031ZM1.85625 14.225L3.50625 9.51406C4.13906 7.70938 5.84062 6.5 7.75312 6.5H16.2469C18.1594 6.5 19.8609 7.70938 20.4938 9.51406L22.1437 14.225C23.2312 14.675 24 15.7484 24 17V23.75V26C24 26.8297 23.3297 27.5 22.5 27.5H21C20.1703 27.5 19.5 26.8297 19.5 26V23.75H4.5V26C4.5 26.8297 3.82969 27.5 3 27.5H1.5C0.670312 27.5 0 26.8297 0 26V23.75V17C0 15.7484 0.76875 14.675 1.85625 14.225ZM6 18.5C6 18.1022 5.84196 17.7206 5.56066 17.4393C5.27936 17.158 4.89782 17 4.5 17C4.10218 17 3.72064 17.158 3.43934 17.4393C3.15804 17.7206 3 18.1022 3 18.5C3 18.8978 3.15804 19.2794 3.43934 19.5607C3.72064 19.842 4.10218 20 4.5 20C4.89782 20 5.27936 19.842 5.56066 19.5607C5.84196 19.2794 6 18.8978 6 18.5ZM19.5 20C19.8978 20 20.2794 19.842 20.5607 19.5607C20.842 19.2794 21 18.8978 21 18.5C21 18.1022 20.842 17.7206 20.5607 17.4393C20.2794 17.158 19.8978 17 19.5 17C19.1022 17 18.7206 17.158 18.4393 17.4393C18.158 17.7206 18 18.1022 18 18.5C18 18.8978 18.158 19.2794 18.4393 19.5607C18.7206 19.842 19.1022 20 19.5 20Z" fill="#2C7548"/>
</svg>
