<svg width="31" height="30" viewBox="0 0 31 30" fill="none" xmlns="http://www.w3.org/2000/svg">
<g clip-path="url(#clip0_1_2513)">
<path d="M11.4375 2.8125H19.875C20.1328 2.8125 20.3438 3.02344 20.3438 3.28125V5.625H10.9688V3.28125C10.9688 3.02344 11.1797 2.8125 11.4375 2.8125ZM8.15625 3.28125V5.625H4.40625C2.33789 5.625 0.65625 7.30664 0.65625 9.375V15H11.9062H19.4062H30.6562V9.375C30.6562 7.30664 28.9746 5.625 26.9062 5.625H23.1562V3.28125C23.1562 1.4707 21.6855 0 19.875 0H11.4375C9.62695 0 8.15625 1.4707 8.15625 3.28125ZM30.6562 16.875H19.4062V18.75C19.4062 19.7871 18.5684 20.625 17.5312 20.625H13.7812C12.7441 20.625 11.9062 19.7871 11.9062 18.75V16.875H0.65625V24.375C0.65625 26.4434 2.33789 28.125 4.40625 28.125H26.9062C28.9746 28.125 30.6562 26.4434 30.6562 24.375V16.875Z" fill="#2C7548"/>
</g>
<defs>
<clipPath id="clip0_1_2513">
<path d="M0.65625 0H30.6562V30H0.65625V0Z" fill="white"/>
</clipPath>
</defs>
</svg>
