<svg width="38" height="30" viewBox="0 0 38 30" fill="none" xmlns="http://www.w3.org/2000/svg">
<g clip-path="url(#clip0_1_2499)">
<path d="M19.9863 0.233398L36.8613 9.6084C37.7636 10.1123 38.0918 11.2549 37.5879 12.1572C37.084 13.0596 35.9414 13.3877 35.039 12.8838L19.0781 4.01855L3.1113 12.8896C2.20895 13.3936 1.06638 13.0654 0.56247 12.1631C0.0585633 11.2607 0.386688 10.1182 1.28903 9.61426L18.1699 0.233398C18.7383 -0.0830078 19.4238 -0.0830078 19.9922 0.233398H19.9863ZM19.0781 9.37402C19.6997 9.37402 20.2958 9.62095 20.7354 10.0605C21.1749 10.5 21.4218 11.0962 21.4218 11.7178C21.4218 12.3394 21.1749 12.9355 20.7354 13.3751C20.2958 13.8146 19.6997 14.0615 19.0781 14.0615C18.4565 14.0615 17.8603 13.8146 17.4208 13.3751C16.9813 12.9355 16.7343 12.3394 16.7343 11.7178C16.7343 11.0962 16.9813 10.5 17.4208 10.0605C17.8603 9.62095 18.4565 9.37402 19.0781 9.37402ZM8.76559 14.999C9.3872 14.999 9.98334 15.246 10.4229 15.6855C10.8624 16.125 11.1093 16.7212 11.1093 17.3428C11.1093 17.9644 10.8624 18.5605 10.4229 19.0001C9.98334 19.4396 9.3872 19.6865 8.76559 19.6865C8.14399 19.6865 7.54785 19.4396 7.10831 19.0001C6.66877 18.5605 6.42184 17.9644 6.42184 17.3428C6.42184 16.7212 6.66877 16.125 7.10831 15.6855C7.54785 15.246 8.14399 14.999 8.76559 14.999ZM27.0468 17.3428C27.0468 16.7212 27.2938 16.125 27.7333 15.6855C28.1728 15.246 28.769 14.999 29.3906 14.999C30.0122 14.999 30.6083 15.246 31.0479 15.6855C31.4874 16.125 31.7343 16.7212 31.7343 17.3428C31.7343 17.9644 31.4874 18.5605 31.0479 19.0001C30.6083 19.4396 30.0122 19.6865 29.3906 19.6865C28.769 19.6865 28.1728 19.4396 27.7333 19.0001C27.2938 18.5605 27.0468 17.9644 27.0468 17.3428ZM13.623 28.792L12.0468 25.8682V28.124C12.0468 29.1611 11.209 29.999 10.1718 29.999H7.35934C6.32224 29.999 5.48434 29.1611 5.48434 28.124V25.8682L3.90817 28.792C3.53903 29.4775 2.68942 29.7295 2.00388 29.3662C1.31833 29.0029 1.06638 28.1475 1.42966 27.4619L3.65036 23.3428C4.54684 21.6728 6.29294 20.6299 8.19138 20.6299H9.33395C10.289 20.6299 11.2031 20.8936 11.9941 21.3682L13.9629 17.7178C14.8593 16.0478 16.6054 15.0049 18.5039 15.0049H19.6465C21.5449 15.0049 23.2851 16.0478 24.1875 17.7178L26.1562 21.3682C26.9472 20.8936 27.8613 20.6299 28.8164 20.6299H29.959C31.8574 20.6299 33.5976 21.6728 34.5 23.3428L36.7207 27.4619C37.0898 28.1475 36.832 28.9971 36.1465 29.3662C35.4609 29.7354 34.6113 29.4775 34.2422 28.792L32.6718 25.8682V28.124C32.6718 29.1611 31.834 29.999 30.7968 29.999H27.9843C26.9472 29.999 26.1093 29.1611 26.1093 28.124V25.8682L24.5332 28.792C24.164 29.4775 23.3144 29.7295 22.6289 29.3662C21.9433 29.0029 21.6914 28.1475 22.0547 27.4619L24.1816 23.5068C24.082 23.4072 23.9941 23.2959 23.9297 23.167L22.3593 20.2432V23.4365C22.3593 24.4736 21.5215 25.3115 20.4843 25.3115H17.6718C16.6347 25.3115 15.7968 24.4736 15.7968 23.4365V20.2432L14.2207 23.167C14.1504 23.2959 14.0683 23.4072 13.9687 23.5068L16.0957 27.4619C16.4648 28.1475 16.207 28.9971 15.5215 29.3662C14.8359 29.7354 13.9863 29.4775 13.6172 28.792H13.623Z" fill="#2C7548"/>
</g>
<defs>
<clipPath id="clip0_1_2499">
<path d="M0.328125 0H37.8281V30H0.328125V0Z" fill="white"/>
</clipPath>
</defs>
</svg>
