<svg width="21" height="32" viewBox="0 0 21 32" fill="none" xmlns="http://www.w3.org/2000/svg">
<path d="M0 0H21V32H0V0Z" stroke="#E5E7EB"/>
<g clip-path="url(#clip0_1_2429)">
<path d="M9.87188 5.27656L2.90625 12.9406C2.72344 13.1375 2.625 13.4 2.625 13.6672C2.625 14.2672 3.10781 14.75 3.70781 14.75H4.875L1.43438 18.1906C1.2375 18.3875 1.125 18.6594 1.125 18.9406C1.125 19.5266 1.59844 20 2.18437 20H3.75L0.253125 24.1953C0.0890625 24.3922 0 24.6406 0 24.8984C0 25.5078 0.492188 26 1.10156 26H9V27.5C9 28.3297 9.67031 29 10.5 29C11.3297 29 12 28.3297 12 27.5V26H19.8984C20.5078 26 21 25.5078 21 24.8984C21 24.6406 20.9109 24.3922 20.7469 24.1953L17.25 20H18.8156C19.4016 20 19.875 19.5266 19.875 18.9406C19.875 18.6594 19.7625 18.3875 19.5656 18.1906L16.125 14.75H17.2922C17.8875 14.75 18.375 14.2672 18.375 13.6672C18.375 13.4 18.2766 13.1375 18.0938 12.9406L11.1281 5.27656C10.9688 5.09844 10.7391 5 10.5 5C10.2609 5 10.0312 5.09844 9.87188 5.27656Z" fill="#2C7548"/>
</g>
<defs>
<clipPath id="clip0_1_2429">
<path d="M0 5H21V29H0V5Z" fill="white"/>
</clipPath>
</defs>
</svg>
