<svg width="23" height="20" viewBox="0 0 23 20" fill="none" xmlns="http://www.w3.org/2000/svg">
<g clip-path="url(#clip0_1_2553)">
<path d="M10.5274 2.72969C10.961 2.42109 11.5391 2.42109 11.9727 2.72969C12.8516 3.33516 13.9258 3.74922 15 3.74922C16.0508 3.74922 17.1641 3.32734 18.0235 2.72969C18.4883 2.39766 19.1211 2.425 19.5547 2.79609C20.1172 3.26094 20.8242 3.61641 21.5313 3.78047C22.2032 3.93672 22.6211 4.60859 22.4649 5.28047C22.3086 5.95234 21.6367 6.37031 20.9649 6.21406C20.0078 5.99141 19.211 5.56953 18.6914 5.2375C17.5586 5.84687 16.2891 6.24922 15 6.24922C13.7539 6.24922 12.6328 5.8625 11.8594 5.51094C11.6328 5.40547 11.4258 5.30391 11.25 5.21016C11.0742 5.30391 10.8711 5.40937 10.6407 5.51094C9.86722 5.8625 8.74612 6.24922 7.50003 6.24922C6.21097 6.24922 4.94144 5.84687 3.80862 5.24141C3.28519 5.56953 2.49222 5.99531 1.53519 6.21797C0.863311 6.37422 0.191436 5.95625 0.0351856 5.28437C-0.121064 4.6125 0.296904 3.94062 0.968779 3.78437C1.6719 3.61641 2.38284 3.26094 2.94144 2.79609C3.37503 2.425 4.00784 2.40156 4.47269 2.72969C5.33987 3.32734 6.44925 3.74922 7.50003 3.74922C8.57425 3.74922 9.64847 3.33516 10.5274 2.72969ZM11.9727 13.9797C12.8516 14.5852 13.9258 14.9992 15 14.9992C16.0508 14.9992 17.1641 14.5773 18.0235 13.9797C18.4883 13.6477 19.1211 13.675 19.5547 14.0461C20.1172 14.5109 20.8242 14.8664 21.5313 15.0305C22.2032 15.1867 22.6211 15.8586 22.4649 16.5305C22.3086 17.2023 21.6367 17.6203 20.9649 17.4641C20.0078 17.2414 19.211 16.8195 18.6914 16.4875C17.5586 17.0969 16.2891 17.4992 15 17.4992C13.7539 17.4992 12.6328 17.1125 11.8594 16.7609C11.6328 16.6555 11.4258 16.5539 11.25 16.4602C11.0742 16.5539 10.8711 16.6594 10.6407 16.7609C9.86722 17.1125 8.74612 17.4992 7.50003 17.4992C6.21097 17.4992 4.94144 17.0969 3.80862 16.4914C3.28519 16.8195 2.49222 17.2453 1.53519 17.468C0.863311 17.6242 0.191436 17.2062 0.0351856 16.5344C-0.121064 15.8625 0.296904 15.1906 0.968779 15.0344C1.67581 14.8703 2.38284 14.5148 2.94534 14.05C3.37894 13.6828 4.01175 13.6555 4.47659 13.9836C5.33987 14.5773 6.44925 14.9992 7.50003 14.9992C8.57425 14.9992 9.64847 14.5852 10.5274 13.9797C10.961 13.6711 11.5391 13.6711 11.9727 13.9797ZM11.9727 8.35469C12.8516 8.96016 13.9258 9.37422 15 9.37422C16.0508 9.37422 17.1641 8.95234 18.0235 8.35469C18.4883 8.02266 19.1211 8.05 19.5547 8.42109C20.1172 8.88594 20.8242 9.24141 21.5313 9.40547C22.2032 9.56172 22.6211 10.2336 22.4649 10.9055C22.3086 11.5773 21.6367 11.9953 20.9649 11.8391C20.0078 11.6164 19.211 11.1945 18.6914 10.8625C17.5586 11.4719 16.2891 11.8742 15 11.8742C13.7539 11.8742 12.6328 11.4875 11.8594 11.1359C11.6328 11.0305 11.4258 10.9289 11.25 10.8352C11.0742 10.9289 10.8711 11.0344 10.6407 11.1359C9.86722 11.4875 8.74612 11.8742 7.50003 11.8742C6.21097 11.8742 4.94144 11.4719 3.80862 10.8664C3.28519 11.1945 2.49222 11.6203 1.53519 11.843C0.863311 11.9992 0.191436 11.5812 0.0351856 10.9094C-0.121064 10.2375 0.296904 9.56562 0.968779 9.40937C1.67581 9.24531 2.38284 8.88984 2.94534 8.425C3.37894 8.05391 4.01175 8.03047 4.47659 8.35859C5.33987 8.95234 6.44925 9.37422 7.50003 9.37422C8.57425 9.37422 9.64847 8.96016 10.5274 8.35469C10.961 8.04609 11.5391 8.04609 11.9727 8.35469Z" fill="#2C7548"/>
</g>
<defs>
<clipPath id="clip0_1_2553">
<path d="M0 0H22.5V20H0V0Z" fill="white"/>
</clipPath>
</defs>
</svg>
